<?xml version="1.0" encoding="UTF-8"?>
<svg xmlns="http://www.w3.org/2000/svg" width="500.14" height="500" viewBox="0 0 500.14 500">
  <defs>
    <style>
      .cls-1 {
        fill: #262a47;
      }

      .cls-2 {
        fill: #d35638;
      }

      .cls-3 {
        fill: #ffbf10;
      }

      .cls-4 {
        fill: #ed1c24;
      }

      .cls-5 {
        fill: #3f1f49;
      }
    </style>
  </defs>
  <g id="Layer_1" data-name="Layer 1">
    <path class="cls-4" d="M353.95,249.39c-.93-4.48-1.42-9.13-1.42-13.89,0-37.43,30.34-67.76,67.76-67.76,37.43,0,67.76,30.34,67.76,67.76,0,4.68-.47,9.25-1.38,13.66"/>
    <g id="text_color_inside" data-name="text color inside">
      <rect class="cls-3" x="5.97" y="248.19" width="411.7" height="83.58"/>
    </g>
    <g>
      <path class="cls-1" d="M60.88,166.53v7.59h-18.67v68.02H18.8v-68.02H.02v-7.59H60.88Z"/>
      <path class="cls-1" d="M101.17,166.53l21.18,75.6h-22.18l-4.51-16.4h-22.9l-4.85,16.4h-8.64l22.51-75.6h19.39Zm-26.25,51.62h18.67l-8.97-33.51-9.7,33.51Z"/>
      <path class="cls-1" d="M211.57,166.53l-20.73,75.6h-14.38l-10.59-41.26-10.76,41.26h-14.38l-19.62-75.6h22.18l11.54,45.86,11.54-45.86h12.98l11.37,46.03,12.15-46.03h8.69Z"/>
      <path class="cls-1" d="M251.92,166.53l21.18,75.6h-22.18l-4.51-16.4h-22.9l-4.85,16.4h-8.64l22.51-75.6h19.39Zm-26.25,51.62h18.67l-8.97-33.51-9.7,33.51Z"/>
      <path class="cls-1" d="M334.68,166.53v75.6h-16.89l-31.77-47.86v47.86h-7.41v-75.6h13.99l34.66,51.68v-51.68h7.41Z"/>
    </g>
    <g id="Layer_4" data-name="Layer 4">
      <g>
        <path class="cls-5" d="M54.71,247.52c9.4,0,16.92,2,22.54,6,5.63,4,8.44,9.36,8.44,16.08,0,10.29-6.04,16.99-18.11,20.1,6.2,2.32,10.21,4.88,12.04,7.65,1.83,2.78,3.07,8.17,3.73,16.18,.78,9.54,2.36,15.85,4.74,18.91h2.92l24.88-84.93H54.71Z"/>
        <path class="cls-5" d="M58.96,312.66l-.12-6.35c0-9.79-3.9-14.68-11.7-14.68h-4.19v40.82h18.66c-1.68-3.94-2.53-8.86-2.53-14.75l-.12-5.04Z"/>
        <polygon class="cls-5" points="105.91 314.03 100.55 332.45 136.22 332.45 131.23 314.03 105.91 314.03"/>
        <polygon class="cls-5" points="128.95 305.51 119.03 267.86 108.31 305.51 128.95 305.51"/>
        <rect class="cls-5" x="0" y="247.52" width="18.55" height="84.93"/>
        <path class="cls-5" d="M47.87,284.6c9.24,0,13.86-4.87,13.86-14.62s-4.62-14.62-13.86-14.62h-4.93v29.24h4.93Z"/>
        <polygon class="cls-5" points="346.51 247.52 370.01 332.45 500 332.45 500 247.52 346.51 247.52"/>
        <polygon class="cls-5" points="338.13 305.51 328.21 267.86 317.5 305.51 338.13 305.51"/>
        <polygon class="cls-5" points="299.24 247.52 299.24 256.04 268.75 256.04 268.75 284.35 294.62 284.35 294.62 292.87 268.75 292.87 268.75 332.45 300.19 332.45 325.07 247.52 299.24 247.52"/>
        <polygon class="cls-5" points="315.09 314.03 309.73 332.45 345.4 332.45 340.41 314.03 315.09 314.03"/>
        <polygon class="cls-5" points="137.33 247.52 160.73 332.45 168.21 332.45 168.21 247.52 137.33 247.52"/>
        <path class="cls-5" d="M198.08,289.83c8.87,0,13.3-5.93,13.3-17.8,0-11.11-4.44-16.67-13.3-16.67h-5.48v34.47h5.48Z"/>
        <path class="cls-5" d="M204.49,247.52c20.57,0,30.86,8.32,30.86,24.95s-11.44,25.2-34.31,25.2h-8.44v34.78h51.76v-84.93h-39.87Z"/>
      </g>
    </g>
  </g>
  <g id="Layer_3" data-name="Layer 3">
    <path class="cls-2" d="M480.39,264.76c1.55-3.03,2.89-6.19,3.97-9.46h-128.15c1.09,3.27,2.42,6.43,3.97,9.46h120.2Z"/>
    <path class="cls-2" d="M469.55,280.15c2.72-2.91,5.2-6.06,7.37-9.41h-113.27c2.18,3.36,4.65,6.5,7.37,9.41h98.53Z"/>
    <path class="cls-2" d="M453.49,292.78c3.97-2.25,7.7-4.88,11.12-7.86h-88.64c3.42,2.98,7.15,5.61,11.12,7.86h66.4Z"/>
    <path class="cls-2" d="M394.41,296.37c7.97,3.32,16.71,5.16,25.88,5.16s17.91-1.85,25.88-5.16h-51.76Z"/>
  </g>
</svg>