<?xml version="1.0" encoding="UTF-8"?>
<svg xmlns="http://www.w3.org/2000/svg" width="2161.45" height="768" viewBox="0 0 2161.45 768">
  <defs>
    <style>
      .cls-1 {
        fill: #60925f;
      }

      .cls-2, .cls-3, .cls-4, .cls-5, .cls-6, .cls-7, .cls-8, .cls-9 {
        stroke-miterlimit: 10;
      }

      .cls-2, .cls-3, .cls-4, .cls-5, .cls-7, .cls-8 {
        stroke: #000;
      }

      .cls-2, .cls-6, .cls-9 {
        fill: none;
      }

      .cls-3 {
        fill: #7b686c;
      }

      .cls-4, .cls-10 {
        fill: #e6e6e6;
      }

      .cls-5, .cls-11 {
        fill: #ccc;
      }

      .cls-6 {
        stroke-width: 3px;
      }

      .cls-6, .cls-9 {
        stroke: #fff;
      }

      .cls-7 {
        fill: #b3b3b3;
      }

      .cls-8 {
        fill: #4a3e40;
      }

      .cls-9 {
        stroke-width: 6px;
      }
    </style>
  </defs>
  <g id="squre">
    <g>
      <polygon class="cls-2" points="83.17 281.98 185.19 281.98 185.19 281 82.19 281 82.19 383.75 83.17 383.75 83.17 281.98"/>
      <path class="cls-2" d="M494.69,206.63v74.37h-104v.25h100v205.25H185.19v-102.5h-.25v102.5H82.19v1.5H495.19V212.5c0-2-.18-3.96-.5-5.87Z"/>
      <path class="cls-2" d="M460.19,177.5H117.19c-6.6,0-12.76,1.83-18.03,5H478.22c-5.27-3.17-11.43-5-18.03-5Z"/>
      <path class="cls-8" d="M390.69,281h104v-74.37c-1.73-10.24-7.9-18.97-16.47-24.13H99.16c-10.17,6.12-16.97,17.27-16.97,30v68.5H390.69Z"/>
      <polygon class="cls-3" points="185.19 281.98 185.19 384 185.19 486.5 390.69 486.5 390.69 281.25 390.69 281 185.19 281 185.19 281.98"/>
      <rect class="cls-5" x="390.69" y="281.25" width="100" height="205.25"/>
      <polygon class="cls-4" points="83.17 281.98 83.17 383.75 184.94 383.75 184.94 384 185.19 384 185.19 281.98 83.17 281.98"/>
      <polygon class="cls-5" points="184.94 384 184.94 383.75 83.17 383.75 82.19 383.75 82.19 486.5 184.94 486.5 184.94 384"/>
      <path class="cls-7" d="M82.19,555.5c0,19.33,15.67,35,35,35H460.19c19.33,0,35-15.67,35-35v-67.5H82.19v67.5Z"/>
    </g>
    <path class="cls-10" d="M463.8,181.39c15.44,0,28,12.56,28,28v350.21c0,15.44-12.56,28-28,28H113.59c-15.44,0-28-12.56-28-28V209.39c0-15.44,12.56-28,28-28H463.8m0-7H113.59c-19.33,0-35,15.67-35,35v350.21c0,19.33,15.67,35,35,35H463.8c19.33,0,35-15.67,35-35V209.39c0-19.33-15.67-35-35-35h0Z"/>
    <rect class="cls-11" x="405.87" y="281.98" width="88.82" height="198.68"/>
  </g>
  <g id="Layer_1" data-name="Layer 1">
    <line class="cls-9" x1="81.69" y1="282" x2="494.69" y2="281"/>
    <line class="cls-6" x1="81.96" y1="385" x2="390.69" y2="384.25"/>
    <line class="cls-6" x1="81.69" y1="488" x2="494.69" y2="487"/>
    <line class="cls-6" x1="185.19" y1="487.75" x2="185.19" y2="177.5"/>
    <line class="cls-6" x1="390.69" y1="590.5" x2="390.69" y2="182.5"/>
    <line class="cls-6" x1="288.69" y1="590.5" x2="288.69" y2="177.5"/>
  </g>
  <g id="text">
    <g>
      <path class="cls-10" d="M793.5,328.3v262.2h-47.53l-95.5-217.69v199.97c0,4.92-1.72,9.11-5.17,12.55-3.45,3.45-7.63,5.17-12.55,5.17s-9.11-1.72-12.55-5.17c-3.45-3.44-5.17-7.63-5.17-12.55V310.16h46.82l95.77,217.27v-199.13c0-4.92,1.79-9.18,5.38-12.76s7.84-5.38,12.76-5.38,9.1,1.76,12.55,5.27c3.44,3.52,5.17,7.8,5.17,12.87Z"/>
      <path class="cls-10" d="M893.27,310.16h143.44c4.64,0,8.75,1.76,12.34,5.27,3.59,3.52,5.38,7.67,5.38,12.45s-1.76,9.18-5.27,12.76c-3.52,3.59-7.67,5.38-12.45,5.38h-53.58v209.04h53.58c4.92,0,9.1,1.72,12.55,5.17,3.44,3.45,5.17,7.63,5.17,12.55s-1.76,9.11-5.27,12.55c-3.52,3.45-7.67,5.17-12.45,5.17h-143.44c-4.92,0-9.11-1.72-12.55-5.17-3.45-3.44-5.17-7.63-5.17-12.55s1.72-9.1,5.17-12.55c3.44-3.44,7.63-5.17,12.55-5.17h54.42v-209.04h-54.42c-4.92,0-9.11-1.76-12.55-5.27-3.45-3.51-5.17-7.66-5.17-12.45,0-5.06,1.72-9.35,5.17-12.87,3.44-3.51,7.63-5.27,12.55-5.27Z"/>
      <path class="cls-10" d="M1136.91,572.78V310.16h125.72c14.48,0,26.96,5.27,37.44,15.82,10.47,10.55,15.72,23.13,15.72,37.76v66.45c0,14.63-5.21,27.14-15.61,37.55s-22.92,15.61-37.55,15.61h-89.86v89.44c0,4.92-1.72,9.11-5.17,12.55s-7.63,5.17-12.55,5.17-9.35-1.72-12.87-5.17c-3.52-3.44-5.27-7.63-5.27-12.55Zm35.86-124.88h89.86c4.78,0,8.93-1.72,12.45-5.17,3.51-3.44,5.27-7.63,5.27-12.55v-66.45c0-4.92-1.76-9.1-5.27-12.55-3.52-3.44-7.67-5.17-12.45-5.17h-89.86v101.89Z"/>
      <path class="cls-10" d="M1397.85,590.5V327.88c0-4.78,1.76-8.93,5.27-12.45s7.66-5.27,12.45-5.27,8.93,1.76,12.45,5.27c3.51,3.52,5.27,7.67,5.27,12.45v227.19h125.3c4.92,0,9.18,1.72,12.76,5.17,3.59,3.45,5.38,7.63,5.38,12.55s-1.79,9.11-5.38,12.55c-3.59,3.45-7.84,5.17-12.76,5.17h-160.74Z"/>
      <path class="cls-10" d="M1659.83,565.82l71.36-242.48c2.84-8.78,8.81-13.18,17.92-13.18s14.36,3.73,16.63,11.18l70.66,246.17c.56,1.83,.84,3.59,.84,5.27,0,4.92-1.69,9.11-5.06,12.55-3.38,3.45-7.24,5.17-11.6,5.17-9.28,0-15.18-4.29-17.71-12.87l-14.01-48.09h-81.15l-15.44,51.52c-.42,2.24-2.19,4.37-5.3,6.4-3.11,2.03-6.5,3.04-10.18,3.04-5.23,0-9.54-1.76-12.93-5.27-3.39-3.51-5.09-7.8-5.09-12.87,0-2.11,.35-4.29,1.05-6.54Zm89.02-173.6l-30.4,101.46h59.95l-29.56-101.46Z"/>
      <path class="cls-10" d="M2098.18,328.3v262.2h-47.53l-95.49-217.69v199.97c0,4.92-1.72,9.11-5.17,12.55s-7.63,5.17-12.55,5.17-9.11-1.72-12.55-5.17c-3.45-3.44-5.17-7.63-5.17-12.55V310.16h46.82l95.77,217.27v-199.13c0-4.92,1.79-9.18,5.38-12.76s7.84-5.38,12.76-5.38,9.1,1.76,12.55,5.27c3.44,3.52,5.17,7.8,5.17,12.87Z"/>
    </g>
  </g>
  <g id="mark">
    <path class="cls-1" d="M518.53,504.06c.28,2.93,.44,5.89,.44,8.9,0,51.02-41.36,92.38-92.38,92.38s-92.38-41.36-92.38-92.38,41.36-92.38,92.38-92.38c11.37,0,22.26,2.07,32.33,5.83l29.83-44.24c-18.84-8.97-39.91-14-62.16-14-79.97,0-144.79,64.83-144.79,144.79s64.83,144.79,144.79,144.79,144.79-64.83,144.79-144.79c0-20.9-4.46-40.75-12.44-58.7l-40.41,49.8Z"/>
  </g>
  <g id="real_mark" data-name="real mark">
    <polygon class="cls-1" points="336.49 527.99 379.85 477.4 419.6 502.7 524.4 347.31 571.37 414.89 426.83 593.04 336.49 527.99"/>
  </g>
</svg>