<?xml version="1.0" encoding="UTF-8"?>
<svg id="Layer_1" data-name="Layer 1" xmlns="http://www.w3.org/2000/svg" width="2205.52" height="513.19" viewBox="0 0 2205.52 513.19">
  <defs>
    <style>
      .cls-1 {
        fill: #60925f;
      }

      .cls-2 {
        fill: #4a3e40;
      }

      .cls-3 {
        fill: #7b686c;
      }

      .cls-4 {
        fill: #e6e6e6;
      }

      .cls-5 {
        fill: #66d366;
      }

      .cls-6 {
        fill: #ccc;
      }

      .cls-7 {
        fill: #b3b3b3;
      }
    </style>
  </defs>
  <path class="cls-4" d="M806.68,172.43v252.86h-45.84l-92.1-209.93v192.84c0,4.74-1.66,8.79-4.99,12.1-3.33,3.33-7.36,4.99-12.1,4.99s-8.79-1.66-12.1-4.99c-3.33-3.32-4.99-7.36-4.99-12.1V154.94h45.15l92.36,209.53V172.43c0-4.74,1.73-8.85,5.19-12.31s7.56-5.19,12.31-5.19,8.78,1.7,12.1,5.08c3.32,3.39,4.99,7.52,4.99,12.41h.02Z"/>
  <path class="cls-4" d="M941.47,154.94h138.33c4.47,0,8.44,1.7,11.9,5.08,3.46,3.39,5.19,7.4,5.19,12.01s-1.7,8.85-5.08,12.31c-3.39,3.46-7.4,5.19-12.01,5.19h-51.67v201.59h51.67c4.74,0,8.78,1.66,12.1,4.99,3.32,3.33,4.99,7.36,4.99,12.1s-1.7,8.79-5.08,12.1c-3.39,3.33-7.4,4.99-12.01,4.99h-138.33c-4.74,0-8.79-1.66-12.1-4.99-3.33-3.32-4.99-7.36-4.99-12.1s1.66-8.78,4.99-12.1c3.32-3.32,7.36-4.99,12.1-4.99h52.48V189.52h-52.48c-4.74,0-8.79-1.7-12.1-5.08-3.33-3.38-4.99-7.39-4.99-12.01,0-4.88,1.66-9.02,4.99-12.41,3.32-3.38,7.36-5.08,12.1-5.08h0Z"/>
  <path class="cls-4" d="M1176.43,408.2V154.94h121.24c13.96,0,26,5.08,36.11,15.26,10.1,10.17,15.16,22.31,15.16,36.41v64.08c0,14.11-5.02,26.17-15.05,36.21-10.03,10.04-22.1,15.05-36.21,15.05h-86.66v86.25c0,4.74-1.66,8.79-4.99,12.1-3.33,3.32-7.36,4.99-12.1,4.99s-9.02-1.66-12.41-4.99c-3.39-3.32-5.08-7.36-5.08-12.1h0Zm34.58-120.44h86.66c4.61,0,8.61-1.66,12.01-4.99,3.38-3.32,5.08-7.36,5.08-12.1v-64.08c0-4.74-1.7-8.78-5.08-12.1-3.39-3.32-7.4-4.99-12.01-4.99h-86.66v98.26Z"/>
  <path class="cls-4" d="M1428.07,425.29V172.03c0-4.61,1.7-8.61,5.08-12.01,3.38-3.39,7.39-5.08,12.01-5.08s8.61,1.7,12.01,5.08c3.38,3.39,5.08,7.4,5.08,12.01v219.09h120.83c4.74,0,8.85,1.66,12.31,4.99,3.46,3.33,5.19,7.36,5.19,12.1s-1.73,8.79-5.19,12.1c-3.46,3.33-7.56,4.99-12.31,4.99h-155.01Z"/>
  <path class="cls-4" d="M1680.71,401.49l68.82-233.84c2.74-8.47,8.5-12.71,17.28-12.71s13.85,3.6,16.04,10.78l68.14,237.4c.54,1.76,.81,3.46,.81,5.08,0,4.74-1.63,8.79-4.88,12.1-3.26,3.33-6.98,4.99-11.19,4.99-8.95,0-14.64-4.14-17.08-12.41l-13.51-46.38h-78.26l-14.89,49.68c-.41,2.16-2.11,4.21-5.11,6.17-3,1.96-6.27,2.93-9.82,2.93-5.04,0-9.2-1.7-12.47-5.08s-4.91-7.52-4.91-12.41c0-2.03,.34-4.14,1.01-6.31h0Zm85.85-167.41l-29.32,97.84h57.81l-28.51-97.84h0Z"/>
  <path class="cls-4" d="M2103.44,172.43v252.86h-45.84l-92.09-209.93v192.84c0,4.74-1.66,8.79-4.99,12.1-3.33,3.32-7.36,4.99-12.1,4.99s-8.79-1.66-12.1-4.99c-3.33-3.32-4.99-7.36-4.99-12.1V154.94h45.15l92.36,209.53V172.43c0-4.74,1.73-8.85,5.19-12.31s7.56-5.19,12.31-5.19,8.78,1.7,12.1,5.08c3.32,3.39,4.99,7.52,4.99,12.41h.01Z"/>
  <path class="cls-2" d="M515.44,146.43v-55.47c0-20.75-16.82-37.57-37.57-37.57H182.52c-20.75,0-37.57,16.82-37.57,37.57v55.47h370.49Z"/>
  <path class="cls-4" d="M234.11,244.68v-87.51c0-.39,.04-.75,.11-1.09h-89.27v88.6h89.17Z"/>
  <rect class="cls-6" x="144.95" y="254.32" width="89.17" height="76.78"/>
  <path class="cls-3" d="M243.65,156.08c.07,.34,.11,.7,.11,1.09v173.93h173.54V156.08H243.65Z"/>
  <rect class="cls-6" x="426.94" y="156.08" width="88.5" height="175.02"/>
  <path class="cls-7" d="M144.95,340.74v45.57c0,20.75,16.82,37.57,37.57,37.57H477.87c20.75,0,37.57-16.82,37.57-37.57v-45.57H144.95Z"/>
  <circle class="cls-1" cx="484.25" cy="389.58" r="92.97"/>
  <g id="real_mark" data-name="real mark">
    <path class="cls-5" d="M416.21,397.94l19.99-23.32c2.76-3.22,7.47-3.92,11.05-1.64l15.03,9.57c3.9,2.48,9.06,1.4,11.64-2.42l64.79-96.07c2.45-3.64,7.8-3.67,10.3-.07l24.55,35.32c2.17,3.12,2.01,7.29-.38,10.23l-93.69,115.47c-2.85,3.51-7.93,4.19-11.6,1.55l-50.19-36.14c-4.05-2.92-4.74-8.67-1.49-12.46Z"/>
  </g>
</svg>